<svg width="24" height="24" viewBox="0 0 24 24" fill="none" xmlns="http://www.w3.org/2000/svg">
<g id="mingcute:government-line" clip-path="url(#clip0_1002_2030)">
<g id="Group">
<path id="Vector" d="M20.9989 7C21.2538 7.00028 21.4989 7.09788 21.6843 7.27285C21.8696 7.44782 21.9811 7.68695 21.9961 7.94139C22.011 8.19584 21.9282 8.44638 21.7646 8.64183C21.601 8.83729 21.369 8.9629 21.1159 8.993L20.9989 9V19C21.2538 19.0003 21.4989 19.0979 21.6843 19.2728C21.8696 19.4478 21.9811 19.687 21.9961 19.9414C22.011 20.1958 21.9282 20.4464 21.7646 20.6418C21.601 20.8373 21.369 20.9629 21.1159 20.993L20.9989 21H2.99889C2.74401 20.9997 2.49886 20.9021 2.31352 20.7272C2.12819 20.5522 2.01666 20.313 2.00172 20.0586C1.98678 19.8042 2.06957 19.5536 2.23316 19.3582C2.39675 19.1627 2.6288 19.0371 2.88189 19.007L2.99889 19V9C2.74401 8.99972 2.49886 8.90212 2.31352 8.72715C2.12819 8.55218 2.01666 8.31305 2.00172 8.05861C1.98678 7.80416 2.06957 7.55362 2.23316 7.35817C2.39675 7.16271 2.6288 7.0371 2.88189 7.007L2.99889 7H20.9989ZM18.9989 9H4.99889V19H6.99889V12C6.99889 11.7348 7.10425 11.4804 7.29179 11.2929C7.47932 11.1054 7.73368 11 7.99889 11C8.26411 11 8.51846 11.1054 8.706 11.2929C8.89354 11.4804 8.99889 11.7348 8.99889 12V19H10.9989V12C10.9989 11.7348 11.1042 11.4804 11.2918 11.2929C11.4793 11.1054 11.7337 11 11.9989 11C12.2641 11 12.5185 11.1054 12.706 11.2929C12.8935 11.4804 12.9989 11.7348 12.9989 12V19H14.9989V12C14.9989 11.7348 15.1042 11.4804 15.2918 11.2929C15.4793 11.1054 15.7337 11 15.9989 11C16.2641 11 16.5185 11.1054 16.706 11.2929C16.8935 11.4804 16.9989 11.7348 16.9989 12V19H18.9989V9ZM17.9989 4C18.2641 4 18.5185 4.10536 18.706 4.29289C18.8935 4.48043 18.9989 4.73478 18.9989 5C18.9989 5.26522 18.8935 5.51957 18.706 5.70711C18.5185 5.89464 18.2641 6 17.9989 6H5.99889C5.73368 6 5.47932 5.89464 5.29179 5.70711C5.10425 5.51957 4.99889 5.26522 4.99889 5C4.99889 4.73478 5.10425 4.48043 5.29179 4.29289C5.47932 4.10536 5.73368 4 5.99889 4H17.9989Z" fill="#D5B4FF"/>
</g>
</g>
<defs>
<clipPath id="clip0_1002_2030">
<rect width="24" height="24" fill="white"/>
</clipPath>
</defs>
</svg>
